<?xml version="1.0" encoding="UTF-8" standalone="no"?>
<svg
   role="img"
   viewBox="0 0 16 16"
   version="1.1"
   id="svg1"
   sodipodi:docname="githubpullrequests.svg"
   width="24"
   height="24"
   inkscape:version="1.3.2 (091e20e, 2023-11-25, custom)"
   xmlns:inkscape="http://www.inkscape.org/namespaces/inkscape"
   xmlns:sodipodi="http://sodipodi.sourceforge.net/DTD/sodipodi-0.dtd"
   xmlns="http://www.w3.org/2000/svg"
   xmlns:svg="http://www.w3.org/2000/svg"
   xmlns:rdf="http://www.w3.org/1999/02/22-rdf-syntax-ns#"
   xmlns:cc="http://creativecommons.org/ns#"
   xmlns:dc="http://purl.org/dc/elements/1.1/">
  <defs
     id="defs1" />
  <sodipodi:namedview
     id="namedview1"
     pagecolor="#505050"
     bordercolor="#eeeeee"
     borderopacity="1"
     inkscape:showpageshadow="0"
     inkscape:pageopacity="0"
     inkscape:pagecheckerboard="0"
     inkscape:deskcolor="#505050"
     inkscape:zoom="73.3125"
     inkscape:cx="8"
     inkscape:cy="8"
     inkscape:window-width="5120"
     inkscape:window-height="1369"
     inkscape:window-x="-8"
     inkscape:window-y="-8"
     inkscape:window-maximized="1"
     inkscape:current-layer="svg1" />
  <title
     id="title1">GitHub Pull Requests</title>
  <path
     d="m 1.5,3.25 a 2.25,2.25 0 1 1 3,2.122 v 5.256 a 2.251,2.251 0 1 1 -1.5,0 V 5.372 A 2.25,2.25 0 0 1 1.5,3.25 Z M 7.177,3.073 9.573,0.677 A 0.25,0.25 0 0 1 10,0.854 V 2.5 h 1 A 2.5,2.5 0 0 1 13.5,5 v 5.628 a 2.251,2.251 0 1 1 -1.5,0 V 5 A 1,1 0 0 0 11,4 H 10 V 5.646 A 0.25,0.25 0 0 1 9.573,5.823 L 7.177,3.427 a 0.25,0.25 0 0 1 0,-0.354 z M 3.75,2.5 a 0.75,0.75 0 1 0 0,1.5 0.75,0.75 0 0 0 0,-1.5 z m 0,9.5 a 0.75,0.75 0 1 0 0,1.5 0.75,0.75 0 0 0 0,-1.5 z M 12,12.75 a 0.75,0.75 0 1 0 1.5,0 0.75,0.75 0 0 0 -1.5,0 z"
     id="path1" />
  <metadata
     id="metadata1">
    <rdf:RDF>
      <cc:Work
         rdf:about="">
        <dc:title>GitHub Pull Requests</dc:title>
      </cc:Work>
    </rdf:RDF>
  </metadata>
</svg>
