<?xml version="1.0" encoding="UTF-8" standalone="no"?>
<svg
   fill="none"
   viewBox="0 0 24 24"
   height="24"
   width="24"
   id="Apple-Logo--Streamline-Logos-Block.svg"
   version="1.1"
   sodipodi:docname="logo-os-macos.svg"
   inkscape:version="1.3.2 (091e20e, 2023-11-25, custom)"
   xmlns:inkscape="http://www.inkscape.org/namespaces/inkscape"
   xmlns:sodipodi="http://sodipodi.sourceforge.net/DTD/sodipodi-0.dtd"
   xmlns="http://www.w3.org/2000/svg"
   xmlns:svg="http://www.w3.org/2000/svg">
  <defs
     id="defs1" />
  <sodipodi:namedview
     id="namedview1"
     pagecolor="#505050"
     bordercolor="#eeeeee"
     borderopacity="1"
     inkscape:showpageshadow="0"
     inkscape:pageopacity="0"
     inkscape:pagecheckerboard="0"
     inkscape:deskcolor="#505050"
     inkscape:zoom="48.875"
     inkscape:cx="11.98977"
     inkscape:cy="8.7263427"
     inkscape:window-width="1350"
     inkscape:window-height="1237"
     inkscape:window-x="769"
     inkscape:window-y="74"
     inkscape:window-maximized="0"
     inkscape:current-layer="Apple-Logo--Streamline-Logos-Block.svg" />
  <desc
     id="desc1">Apple Logo Streamline Icon: https://streamlinehq.com</desc>
  <path
     fill="#646464"
     fill-rule="evenodd"
     d="M 4.3787491,0.01790281 A 4.3608463,4.3608463 0 0 0 0.01790281,4.3787491 V 19.641711 A 4.3608463,4.3608463 0 0 0 4.3787491,24.002558 H 19.641711 a 4.3608463,4.3608463 0 0 0 4.360847,-4.360847 V 4.3787491 A 4.3608463,4.3608463 0 0 0 19.641711,0.01790281 Z M 11.465124,6.3116942 c 0,-2.3788416 1.189421,-3.5682624 3.568263,-3.5682624 0,2.3788417 -1.189421,3.5682624 -3.568263,3.5682624 z M 8.5597105,7.1042781 c 0.7609677,0 1.3442309,0.268192 1.8533595,0.5014974 0.395747,0.180975 0.745705,0.3423264 1.101114,0.3423264 0.354319,0 0.786043,-0.1613514 1.272277,-0.3423264 0.625781,-0.2333054 1.34314,-0.5014974 2.104108,-0.5014974 0.958297,0 2.188054,0.5440155 3.072216,1.6309565 C 17.47219,9.0579373 16.491,10.021684 16.491,12.169401 c 0,1.662573 1.399832,2.971917 2.099747,3.225936 -0.760967,2.52057 -2.245836,4.79148 -3.700178,4.79148 -0.632322,0 -1.161075,-0.211501 -1.688737,-0.421912 -0.526573,-0.211501 -1.054235,-0.421912 -1.687648,-0.421912 -0.632323,0 -1.055324,0.210411 -1.477237,0.421912 -0.4219117,0.211502 -0.8438236,0.421912 -1.4772365,0.421912 -2.0801237,0 -4.2191188,-4.642121 -4.2191188,-8.018506 0,-3.3763854 2.5314713,-5.0640329 4.2191188,-5.0640329 z"
     clip-rule="evenodd"
     stroke-width="1.09021"
     id="path1" />
</svg>
